<?xml version="1.0" encoding="UTF-8"?>
<svg id="Capa_2" data-name="Capa 2" xmlns="http://www.w3.org/2000/svg" viewBox="0 0 910.83 387.42">
  <defs>
    <style>
      .cls-1 {
        fill: #00a3e2;
      }

      .cls-2 {
        fill: #1a1a1a;
      }
    </style>
  </defs>
  <g id="Capa_1-2" data-name="Capa 1">
    <g>
      <path class="cls-1" d="m228.73,382.66l-15.95-9.89c-18.54-11.48-28.57-29.32-28.78-51.12l-.11-11.03c-27.47-15.47-52.6-34.77-74.87-57.43,4.06,14.08,2.63,28.73-4.37,42.9l-8.3,16.82-9.76-16.03c-11.34-18.61-12.25-39.05-2.59-58.61l4.13-8.33c-17.04-20.77-31.96-43.81-44.42-68.82-3.71-7.43-7.14-14.98-10.34-22.6,4.64,18.9.43,37.11-12.29,52.55l-11.93,14.48-5.84-17.83c-6.8-20.72-3.02-40.82,10.85-57.65l10.88-13.21C12.77,81.82,5.67,45.18,3.8,7.95c-.18-3.57,3.21-6.26,6.64-5.24h0c2.11.62,3.58,2.51,3.7,4.71,1.07,20.87,3.82,41.4,8.14,61.4l14.57,2.36c21.52,3.47,37.65,16.07,46.22,36.11l7.39,17.24-18.51-2.98c-20.51-3.32-36.09-14.91-44.93-33.33,7.41,27.29,17.8,53.43,30.9,77.86l14.73-.85c21.77-1.27,40.23,7.54,52.95,25.27l10.93,15.23-18.73,1.09c-18.09,1.04-33.89-4.89-46.01-17.1,19.14,29.96,42.6,56.8,69.85,79.37l14.41-7.1c19.57-9.64,40-8.72,58.61,2.65l16.01,9.77-16.83,8.29c-18.9,9.31-38.63,8.73-56.74-1.59,26.79,19.62,56.79,35.31,89.52,46.14l10.49-11.33c14.81-16,34.22-22.46,55.67-18.51l18.45,3.39-12.74,13.76c-13.15,14.21-29.94,20.87-48.54,19.43,33.48,8.38,67.27,11.17,100.47,8.9l3.25-14.39c4.81-21.26,18.39-36.56,38.93-43.88l17.67-6.29-4.15,18.29c-4.82,21.27-18.38,36.57-38.93,43.9l-3.31,1.17c38.67-4.24,76.32-15.29,111.53-32.3h-.24s9.5-16.17,9.5-16.17c11.05-18.8,28.62-29.25,50.41-30l18.74-.62-9.5,16.16c-9.99,17.03-25.37,27.19-44.37,29.5-17.66,9.91-35.82,18.22-54.3,24.93,11.7.99,22.85,5.59,32.83,13.75l14.54,11.87-17.81,5.92c-20.68,6.88-40.81,3.18-57.69-10.62l-11.23-9.19c-24.28,5.71-48.93,8.71-73.62,9,7.25,3.86,13.77,9.36,19.36,16.45l11.62,14.72-18.65,1.93c-21.69,2.26-40.53-5.7-54.04-22.82l-10.95-13.87c-15.47-2.28-30.87-5.65-46.1-10.14-13.23-3.9-26.08-8.59-38.57-13.99,8.53,10.31,13.08,23.09,13.22,37.67l.19,18.76Z"/>
      <g>
        <path class="cls-2" d="m176.51,84.91c-7.1-3.91-12.67-9.33-16.7-16.26-4.04-6.93-6.06-14.68-6.06-23.27s2.02-16.34,6.06-23.27c4.04-6.93,9.63-12.35,16.77-16.26,7.14-3.91,15.13-5.87,23.97-5.87,6.63,0,12.75,1.11,18.36,3.32,5.61,2.21,10.37,5.44,14.28,9.69l-5.99,5.99c-6.97-7.05-15.77-10.58-26.39-10.58-7.06,0-13.47,1.62-19.25,4.84-5.78,3.23-10.31,7.65-13.58,13.26-3.27,5.61-4.91,11.9-4.91,18.87s1.64,13.26,4.91,18.87c3.27,5.61,7.8,10.03,13.58,13.26,5.78,3.23,12.2,4.84,19.25,4.84,10.71,0,19.51-3.57,26.39-10.71l5.99,5.99c-3.91,4.25-8.69,7.5-14.34,9.75-5.65,2.25-11.79,3.38-18.42,3.38-8.84,0-16.81-1.95-23.91-5.87Z"/>
        <path class="cls-2" d="m266.39,84.85c-7.18-3.95-12.79-9.37-16.83-16.26-4.04-6.89-6.06-14.62-6.06-23.2s2.02-16.32,6.06-23.2c4.04-6.88,9.65-12.3,16.83-16.26,7.18-3.95,15.19-5.93,24.03-5.93s16.81,1.96,23.91,5.87c7.1,3.91,12.69,9.33,16.77,16.26,4.08,6.93,6.12,14.68,6.12,23.27s-2.04,16.34-6.12,23.27c-4.08,6.93-9.67,12.35-16.77,16.26-7.1,3.91-15.07,5.87-23.91,5.87s-16.85-1.98-24.03-5.93Zm43.16-7.27c5.69-3.19,10.16-7.61,13.39-13.26,3.23-5.65,4.84-11.96,4.84-18.93s-1.61-13.28-4.84-18.93c-3.23-5.65-7.69-10.07-13.39-13.26-5.7-3.19-12.07-4.78-19.12-4.78s-13.45,1.59-19.19,4.78c-5.74,3.19-10.24,7.61-13.52,13.26-3.27,5.65-4.91,11.96-4.91,18.93s1.64,13.28,4.91,18.93c3.27,5.65,7.78,10.07,13.52,13.26,5.74,3.19,12.13,4.78,19.19,4.78s13.43-1.59,19.12-4.78Z"/>
        <path class="cls-2" d="m432.97.77v89.25h-7.78l-57.37-72.42v72.42h-9.43V.77h7.78l57.5,72.42V.77h9.31Z"/>
        <path class="cls-2" d="m476.89,84.91c-7.1-3.91-12.67-9.33-16.7-16.26-4.04-6.93-6.06-14.68-6.06-23.27s2.02-16.34,6.06-23.27c4.04-6.93,9.63-12.35,16.77-16.26,7.14-3.91,15.13-5.87,23.97-5.87,6.63,0,12.75,1.11,18.36,3.32,5.61,2.21,10.37,5.44,14.28,9.69l-5.99,5.99c-6.97-7.05-15.77-10.58-26.39-10.58-7.06,0-13.47,1.62-19.25,4.84-5.78,3.23-10.31,7.65-13.58,13.26-3.27,5.61-4.91,11.9-4.91,18.87s1.64,13.26,4.91,18.87c3.27,5.61,7.8,10.03,13.58,13.26,5.78,3.23,12.2,4.84,19.25,4.84,10.71,0,19.51-3.57,26.39-10.71l5.99,5.99c-3.91,4.25-8.69,7.5-14.34,9.75-5.65,2.25-11.79,3.38-18.42,3.38-8.84,0-16.81-1.95-23.91-5.87Z"/>
        <path class="cls-2" d="m562.38,80.83c-6.46-6.63-9.69-16.28-9.69-28.94V.77h9.44v50.74c0,10.37,2.34,18.11,7.01,23.2,4.67,5.1,11.43,7.65,20.27,7.65s15.72-2.55,20.4-7.65c4.67-5.1,7.01-12.83,7.01-23.2V.77h9.18v51.13c0,12.67-3.21,22.31-9.63,28.94-6.42,6.63-15.41,9.95-26.97,9.95s-20.57-3.32-27.03-9.95Z"/>
        <path class="cls-2" d="m715.38,90.01l-20.4-28.69c-2.29.26-4.68.38-7.14.38h-23.97v28.3h-9.43V.77h33.4c11.39,0,20.32,2.72,26.77,8.16,6.46,5.44,9.69,12.92,9.69,22.44,0,6.97-1.77,12.86-5.29,17.66-3.53,4.8-8.56,8.27-15.11,10.39l21.8,30.6h-10.33Zm-7.52-42.2c4.67-3.91,7.01-9.39,7.01-16.45s-2.34-12.77-7.01-16.64c-4.68-3.87-11.43-5.8-20.27-5.8h-23.72v44.75h23.72c8.84,0,15.6-1.95,20.27-5.87Z"/>
        <path class="cls-2" d="m752.16,87.59c-6.08-2.12-10.77-4.93-14.09-8.42l3.7-7.27c3.23,3.23,7.52,5.85,12.88,7.84,5.36,2,10.88,3,16.57,3,7.99,0,13.98-1.47,17.98-4.4,3.99-2.93,5.99-6.74,5.99-11.41,0-3.57-1.08-6.42-3.25-8.54-2.17-2.12-4.82-3.76-7.97-4.91-3.15-1.15-7.52-2.4-13.13-3.76-6.72-1.7-12.07-3.34-16.07-4.91-4-1.57-7.42-3.97-10.26-7.2-2.85-3.23-4.27-7.61-4.27-13.13,0-4.5,1.19-8.61,3.57-12.3,2.38-3.7,6.03-6.65,10.96-8.86,4.93-2.21,11.05-3.32,18.36-3.32,5.1,0,10.09.7,14.98,2.1,4.89,1.4,9.12,3.34,12.69,5.8l-3.19,7.52c-3.74-2.46-7.74-4.31-11.99-5.55-4.25-1.23-8.41-1.85-12.49-1.85-7.82,0-13.71,1.51-17.66,4.53-3.95,3.02-5.93,6.91-5.93,11.67,0,3.57,1.08,6.44,3.25,8.61,2.17,2.17,4.89,3.82,8.16,4.97,3.27,1.15,7.67,2.4,13.2,3.76,6.54,1.62,11.84,3.21,15.87,4.78,4.04,1.57,7.46,3.95,10.26,7.14s4.21,7.5,4.21,12.94c0,4.51-1.21,8.61-3.63,12.3-2.42,3.7-6.14,6.63-11.16,8.8-5.02,2.17-11.18,3.25-18.49,3.25-6.63,0-12.99-1.06-19.06-3.19Z"/>
        <path class="cls-2" d="m840,84.85c-7.18-3.95-12.79-9.37-16.83-16.26-4.04-6.89-6.06-14.62-6.06-23.2s2.02-16.32,6.06-23.2c4.04-6.88,9.65-12.3,16.83-16.26,7.18-3.95,15.19-5.93,24.03-5.93s16.81,1.96,23.91,5.87c7.1,3.91,12.69,9.33,16.77,16.26,4.08,6.93,6.12,14.68,6.12,23.27s-2.04,16.34-6.12,23.27c-4.08,6.93-9.67,12.35-16.77,16.26-7.1,3.91-15.07,5.87-23.91,5.87s-16.85-1.98-24.03-5.93Zm43.16-7.27c5.69-3.19,10.16-7.61,13.39-13.26,3.23-5.65,4.84-11.96,4.84-18.93s-1.61-13.28-4.84-18.93c-3.23-5.65-7.69-10.07-13.39-13.26-5.7-3.19-12.07-4.78-19.12-4.78s-13.45,1.59-19.19,4.78-10.24,7.61-13.52,13.26c-3.27,5.65-4.91,11.96-4.91,18.93s1.64,13.28,4.91,18.93c3.27,5.65,7.78,10.07,13.52,13.26,5.74,3.19,12.13,4.78,19.19,4.78s13.43-1.59,19.12-4.78Z"/>
      </g>
      <g>
        <path class="cls-2" d="m153.75,123.47h22.27v78.09h48.25v18.15h-70.53v-96.23Z"/>
        <path class="cls-2" d="m236.78,123.47h22.27v96.23h-22.27v-96.23Z"/>
        <path class="cls-2" d="m301.81,141.62h-30.79v-18.15h83.86v18.15h-30.8v78.09h-22.27v-78.09Z"/>
        <path class="cls-2" d="m441.35,201.83v17.87h-74.51v-96.23h72.73v17.87h-50.59v20.9h44.68v17.32h-44.68v22.27h52.38Z"/>
        <path class="cls-2" d="m520.4,219.7l-18.56-26.81h-20.48v26.81h-22.27v-96.23h41.66c8.52,0,15.92,1.42,22.2,4.26,6.28,2.84,11.11,6.87,14.5,12.1,3.39,5.22,5.09,11.41,5.09,18.56s-1.72,13.31-5.16,18.49c-3.44,5.18-8.32,9.14-14.64,11.89l21.58,30.93h-23.92Zm-5.64-73.76c-3.48-2.89-8.57-4.33-15.26-4.33h-18.15v33.54h18.15c6.69,0,11.78-1.47,15.26-4.4,3.48-2.93,5.22-7.06,5.22-12.37s-1.74-9.55-5.22-12.44Z"/>
        <path class="cls-2" d="m623.5,199.08h-44.68l-8.52,20.62h-22.82l42.89-96.23h22l43.03,96.23h-23.37l-8.52-20.62Zm-7.01-16.91l-15.26-36.84-15.26,36.84h30.52Z"/>
        <path class="cls-2" d="m726.75,219.7l-18.56-26.81h-20.48v26.81h-22.27v-96.23h41.66c8.52,0,15.92,1.42,22.2,4.26,6.28,2.84,11.11,6.87,14.5,12.1,3.39,5.22,5.09,11.41,5.09,18.56s-1.72,13.31-5.16,18.49c-3.44,5.18-8.32,9.14-14.64,11.89l21.58,30.93h-23.92Zm-5.64-73.76c-3.48-2.89-8.57-4.33-15.26-4.33h-18.15v33.54h18.15c6.69,0,11.78-1.47,15.26-4.4,3.48-2.93,5.22-7.06,5.22-12.37s-1.74-9.55-5.22-12.44Z"/>
        <path class="cls-2" d="m766.48,123.47h22.27v96.23h-22.27v-96.23Z"/>
        <path class="cls-2" d="m831.16,214.89c-8.02-4.31-14.3-10.24-18.83-17.8-4.54-7.56-6.8-16.06-6.8-25.5s2.27-17.94,6.8-25.5c4.54-7.56,10.81-13.49,18.83-17.8,8.02-4.31,17.02-6.46,27.01-6.46s18.97,2.15,26.95,6.46c7.97,4.31,14.25,10.24,18.83,17.8,4.58,7.56,6.87,16.06,6.87,25.5s-2.29,17.94-6.87,25.5c-4.58,7.56-10.86,13.5-18.83,17.8-7.97,4.31-16.96,6.46-26.95,6.46s-19-2.15-27.01-6.46Zm42.41-16.43c4.58-2.61,8.18-6.25,10.79-10.93,2.61-4.67,3.92-9.99,3.92-15.95s-1.3-11.27-3.92-15.95c-2.61-4.67-6.21-8.32-10.79-10.93-4.58-2.61-9.72-3.92-15.4-3.92s-10.82,1.31-15.4,3.92c-4.58,2.61-8.18,6.25-10.79,10.93-2.61,4.67-3.92,9.99-3.92,15.95s1.31,11.27,3.92,15.95c2.61,4.67,6.21,8.32,10.79,10.93,4.58,2.61,9.71,3.92,15.4,3.92s10.81-1.31,15.4-3.92Z"/>
      </g>
    </g>
  </g>
</svg>