<?xml version="1.0" encoding="UTF-8"?>
<svg id="Capa_2" data-name="Capa 2" xmlns="http://www.w3.org/2000/svg" viewBox="0 0 724.39 322.18">
  <defs>
    <style>
      .cls-1 {
        fill: #1a1a1a;
      }

      .cls-2 {
        fill: #6314a7;
      }
    </style>
  </defs>
  <g id="Capa_1-2" data-name="Capa 1">
    <g>
      <path class="cls-2" d="m189.75,318.23l-13.23-8.2c-15.38-9.53-23.7-24.32-23.88-42.41l-.09-9.15c-22.79-12.84-43.63-28.85-62.11-47.65,3.37,11.68,2.18,23.83-3.63,35.59l-6.89,13.96-8.1-13.3c-9.41-15.44-10.16-32.4-2.15-48.62l3.42-6.91c-14.14-17.23-26.51-36.34-36.85-57.1-3.08-6.16-5.92-12.42-8.58-18.75,3.85,15.68.35,30.78-10.2,43.59l-9.9,12.01-4.84-14.79c-5.64-17.19-2.5-33.87,9-47.83l9.03-10.96C10.59,68.65,4.7,38.25,3.16,7.36c-.15-2.96,2.66-5.19,5.51-4.35h0c1.75.52,2.97,2.09,3.07,3.91.89,17.31,3.17,34.35,6.75,50.94l12.09,1.96c17.85,2.88,31.23,13.34,38.35,29.96l6.13,14.3-15.36-2.47c-17.01-2.75-29.94-12.37-37.28-27.65,6.14,22.64,14.77,44.33,25.63,64.6l12.22-.71c18.06-1.05,33.37,6.26,43.93,20.96l9.07,12.64-15.54.9c-15.01.86-28.12-4.06-38.17-14.18,15.88,24.85,35.34,47.12,57.95,65.85l11.95-5.89c16.24-8,33.19-7.23,48.62,2.2l13.28,8.11-13.96,6.88c-15.68,7.72-32.04,7.24-47.07-1.32,22.23,16.28,47.11,29.29,74.27,38.28l8.7-9.4c12.28-13.28,28.39-18.63,46.18-15.35l15.3,2.81-10.57,11.42c-10.91,11.79-24.83,17.32-40.27,16.12,27.77,6.95,55.81,9.27,83.35,7.39l2.7-11.94c3.99-17.64,15.26-30.33,32.3-36.4l14.66-5.22-3.44,15.17c-4,17.65-15.25,30.34-32.29,36.42l-2.75.97c32.08-3.51,63.32-12.68,92.53-26.8h-.2s7.88-13.41,7.88-13.41c9.16-15.59,23.74-24.27,41.82-24.89l15.55-.52-7.88,13.41c-8.29,14.13-21.05,22.56-36.81,24.47-14.65,8.22-29.72,15.12-45.05,20.68,9.71.82,18.95,4.63,27.24,11.41l12.06,9.85-14.78,4.91c-17.15,5.71-33.85,2.64-47.86-8.81l-9.32-7.62c-20.14,4.74-40.59,7.23-61.07,7.46,6.02,3.2,11.42,7.77,16.06,13.65l9.64,12.21-15.47,1.61c-17.99,1.87-33.63-4.73-44.83-18.93l-9.09-11.51c-12.83-1.89-25.61-4.68-38.25-8.41-10.98-3.24-21.64-7.13-32-11.6,7.08,8.55,10.85,19.16,10.97,31.25l.16,15.56Z"/>
      <g>
        <path class="cls-1" d="m225.38,179.48l-.29-46.88-22.34,37.62h-15.28l-22.34-36v45.26h-31.59v-102.86h28.51l33.5,54.81,32.62-54.81h28.51l.29,102.86h-31.59Z"/>
        <path class="cls-1" d="m273.8,175.59c-3.67-3.57-5.51-8.16-5.51-13.74s1.84-10.11,5.51-13.59c3.67-3.48,8.3-5.22,13.89-5.22s10.21,1.74,13.89,5.22c3.67,3.48,5.51,8.01,5.51,13.59s-1.84,10.16-5.51,13.74c-3.67,3.58-8.3,5.36-13.89,5.36s-10.21-1.79-13.89-5.36Z"/>
        <path class="cls-1" d="m318.39,76.62h34.68v102.86h-34.68v-102.86Z"/>
        <path class="cls-1" d="m369.89,175.59c-3.67-3.57-5.51-8.16-5.51-13.74s1.84-10.11,5.51-13.59c3.67-3.48,8.3-5.22,13.89-5.22s10.21,1.74,13.89,5.22c3.67,3.48,5.51,8.01,5.51,13.59s-1.84,10.16-5.51,13.74c-3.67,3.58-8.3,5.36-13.89,5.36s-10.21-1.79-13.89-5.36Z"/>
        <path class="cls-1" d="m515.88,76.62v102.86h-28.51l-39.09-46.73v46.73h-33.8v-102.86h28.51l39.09,46.73v-46.73h33.8Z"/>
        <path class="cls-1" d="m532.7,175.59c-3.67-3.57-5.51-8.16-5.51-13.74s1.84-10.11,5.51-13.59c3.67-3.48,8.3-5.22,13.89-5.22s10.21,1.74,13.89,5.22c3.67,3.48,5.51,8.01,5.51,13.59s-1.84,10.16-5.51,13.74c-3.67,3.58-8.3,5.36-13.89,5.36s-10.21-1.79-13.89-5.36Z"/>
        <path class="cls-1" d="m588.91,169.05c-8.82-8.52-13.22-20.47-13.22-35.85v-56.57h34.68v55.54c0,7.54,1.35,13.03,4.04,16.46,2.69,3.43,6.59,5.14,11.68,5.14s8.99-1.71,11.68-5.14c2.69-3.43,4.04-8.91,4.04-16.46v-55.54h34.09v56.57c0,15.38-4.41,27.33-13.22,35.85-8.82,8.52-21.11,12.78-36.88,12.78s-28.07-4.26-36.88-12.78Z"/>
        <path class="cls-1" d="m691.11,175.59c-3.67-3.57-5.51-8.16-5.51-13.74s1.84-10.11,5.51-13.59c3.67-3.48,8.3-5.22,13.89-5.22s10.21,1.74,13.89,5.22c3.67,3.48,5.51,8.01,5.51,13.59s-1.84,10.16-5.51,13.74c-3.67,3.58-8.3,5.36-13.89,5.36s-10.21-1.79-13.89-5.36Z"/>
      </g>
      <g>
        <path class="cls-1" d="m164.25,28.59h-21.73l-4.68,10.42h-4.29L151.37,0h4.07l17.83,39.01h-4.35l-4.68-10.42Zm-1.51-3.34l-9.36-20.95-9.36,20.95h18.72Z"/>
        <path class="cls-1" d="m179.74,0h4.12v39.01h-4.12V0Z"/>
        <path class="cls-1" d="m196.57,0h4.12v35.44h21.84v3.57h-25.97V0Z"/>
        <path class="cls-1" d="m256.97,35.44v3.57h-27.58V0h26.75v3.57h-22.62v13.88h20.17v3.51h-20.17v14.49h23.46Z"/>
      </g>
    </g>
  </g>
</svg>