<?xml version="1.0" encoding="UTF-8"?>
<svg id="Capa_2" data-name="Capa 2" xmlns="http://www.w3.org/2000/svg" viewBox="0 0 735.23 358.07">
  <defs>
    <style>
      .cls-1 {
        fill: #1a1a1a;
      }

      .cls-2 {
        fill: #2a206f;
      }
    </style>
  </defs>
  <g id="Capa_1-2" data-name="Capa 1">
    <g>
      <path class="cls-2" d="m193.84,354.03l-13.51-8.38c-15.71-9.73-24.21-24.84-24.39-43.32l-.09-9.35c-23.28-13.11-44.57-29.47-63.45-48.67,3.44,11.93,2.23,24.35-3.7,36.36l-7.04,14.26-8.27-13.58c-9.61-15.78-10.38-33.1-2.2-49.67l3.5-7.06c-14.44-17.6-27.08-37.13-37.65-58.33-3.14-6.3-6.05-12.69-8.76-19.15,3.93,16.02.36,31.45-10.42,44.53l-10.11,12.27-4.95-15.11c-5.76-17.56-2.56-34.6,9.2-48.86l9.22-11.2C10.82,99.08,4.8,68.03,3.22,36.48c-.15-3.03,2.72-5.3,5.63-4.44h0c1.79.53,3.04,2.13,3.13,3.99.91,17.68,3.24,35.09,6.9,52.04l12.35,2c18.24,2.94,31.9,13.62,39.17,30.6l6.26,14.61-15.69-2.53c-17.38-2.81-30.59-12.64-38.08-28.25,6.28,23.13,15.09,45.28,26.19,65.99l12.48-.72c18.45-1.07,34.09,6.39,44.87,21.41l9.27,12.91-15.87.92c-15.33.88-28.72-4.15-38.99-14.49,16.22,25.39,36.1,48.13,59.19,67.26l12.21-6.01c16.59-8.17,33.9-7.39,49.67,2.25l13.56,8.28-14.26,7.03c-16.02,7.89-32.73,7.4-48.08-1.34,22.71,16.63,48.12,29.92,75.87,39.1l8.89-9.6c12.55-13.56,29-19.03,47.17-15.68l15.63,2.87-10.8,11.66c-11.15,12.04-25.37,17.69-41.14,16.46,28.37,7.1,57.01,9.47,85.14,7.55l2.75-12.19c4.08-18.02,15.59-30.99,33-37.19l14.97-5.33-3.52,15.5c-4.08,18.03-15.58,30.99-32.99,37.2l-2.81.99c32.77-3.59,64.68-12.96,94.52-27.37h-.2s8.05-13.7,8.05-13.7c9.36-15.93,24.25-24.79,42.72-25.42l15.88-.53-8.05,13.7c-8.47,14.43-21.5,23.04-37.6,25-14.97,8.4-30.36,15.44-46.02,21.12,9.92.84,19.36,4.73,27.82,11.65l12.32,10.06-15.09,5.02c-17.52,5.83-34.58,2.69-48.89-9l-9.52-7.78c-20.58,4.84-41.47,7.38-62.39,7.62,6.14,3.27,11.67,7.93,16.41,13.94l9.84,12.47-15.8,1.64c-18.38,1.91-34.35-4.83-45.8-19.34l-9.28-11.76c-13.11-1.94-26.16-4.79-39.07-8.59-11.21-3.31-22.1-7.28-32.68-11.85,7.23,8.74,11.09,19.57,11.21,31.93l.16,15.9Z"/>
      <g>
        <g>
          <path class="cls-1" d="m240.48.78v90.9h-9.22V18.96l-35.71,61.16h-4.55l-35.71-60.77v72.33h-9.22V.78h7.92l39.48,67.4L232.55.78h7.92Z"/>
          <path class="cls-1" d="m285.34,86.42c-7.32-4.03-13.03-9.54-17.14-16.56-4.11-7.01-6.17-14.89-6.17-23.63s2.06-16.62,6.17-23.63c4.11-7.01,9.82-12.53,17.14-16.56,7.31-4.03,15.47-6.04,24.48-6.04s17.12,1.99,24.35,5.97c7.23,3.98,12.92,9.5,17.08,16.56,4.16,7.06,6.23,14.96,6.23,23.7s-2.08,16.64-6.23,23.7c-4.16,7.06-9.85,12.58-17.08,16.56-7.23,3.98-15.35,5.97-24.35,5.97s-17.16-2.01-24.48-6.04Zm43.96-7.4c5.8-3.25,10.34-7.75,13.64-13.51,3.29-5.76,4.93-12.18,4.93-19.28s-1.65-13.53-4.93-19.28c-3.29-5.76-7.84-10.26-13.64-13.51-5.8-3.25-12.29-4.87-19.48-4.87s-13.7,1.62-19.54,4.87-10.43,7.75-13.77,13.51c-3.33,5.76-5,12.19-5,19.28s1.67,13.53,5,19.28c3.33,5.76,7.92,10.26,13.77,13.51,5.84,3.25,12.36,4.87,19.54,4.87s13.68-1.62,19.48-4.87Z"/>
          <path class="cls-1" d="m379.03.78h37.01c9.61,0,18.09,1.93,25.45,5.78,7.36,3.85,13.07,9.22,17.14,16.1,4.07,6.88,6.1,14.74,6.1,23.57s-2.04,16.69-6.1,23.57c-4.07,6.88-9.78,12.25-17.14,16.1-7.36,3.85-15.84,5.78-25.45,5.78h-37.01V.78Zm36.49,82.59c7.96,0,14.93-1.58,20.91-4.74,5.97-3.16,10.6-7.53,13.9-13.12,3.29-5.58,4.93-12.01,4.93-19.28s-1.65-13.7-4.93-19.28c-3.29-5.58-7.92-9.95-13.9-13.12-5.97-3.16-12.94-4.74-20.91-4.74h-26.88v74.28h26.88Z"/>
          <path class="cls-1" d="m550.57,83.37v8.31h-64.28V.78h62.33v8.31h-52.72v32.34h47.01v8.18h-47.01v33.76h54.67Z"/>
          <path class="cls-1" d="m573.17.78h9.61v82.59h50.9v8.31h-60.51V.78Z"/>
          <path class="cls-1" d="m663.1,86.42c-7.32-4.03-13.03-9.54-17.14-16.56-4.11-7.01-6.17-14.89-6.17-23.63s2.06-16.62,6.17-23.63c4.11-7.01,9.82-12.53,17.14-16.56,7.31-4.03,15.47-6.04,24.48-6.04s17.12,1.99,24.35,5.97c7.23,3.98,12.92,9.5,17.08,16.56,4.16,7.06,6.23,14.96,6.23,23.7s-2.08,16.64-6.23,23.7c-4.16,7.06-9.85,12.58-17.08,16.56-7.23,3.98-15.35,5.97-24.35,5.97s-17.16-2.01-24.48-6.04Zm43.96-7.4c5.8-3.25,10.34-7.75,13.64-13.51,3.29-5.76,4.93-12.18,4.93-19.28s-1.65-13.53-4.93-19.28c-3.29-5.76-7.84-10.26-13.64-13.51-5.8-3.25-12.29-4.87-19.48-4.87s-13.7,1.62-19.54,4.87c-5.84,3.25-10.43,7.75-13.76,13.51-3.33,5.76-5,12.19-5,19.28s1.67,13.53,5,19.28c3.33,5.76,7.92,10.26,13.76,13.51,5.84,3.25,12.36,4.87,19.54,4.87s13.68-1.62,19.48-4.87Z"/>
        </g>
        <path class="cls-1" d="m207.54,141.57v71.19h-24v-26.24h-22.17v26.24h-24v-71.19h24v25.22h22.17v-25.22h24Z"/>
        <path class="cls-1" d="m219.13,141.57h24v71.19h-24v-71.19Z"/>
        <path class="cls-1" d="m264.03,212.4c-5.59-1.32-10.19-3.1-13.78-5.34l7.73-17.49c3.39,1.97,7.19,3.54,11.39,4.73,4.2,1.19,8.24,1.78,12.1,1.78,3.32,0,5.7-.32,7.12-.97,1.42-.64,2.14-1.61,2.14-2.9,0-1.49-.93-2.61-2.8-3.36-1.87-.75-4.93-1.56-9.2-2.44-5.49-1.15-10.07-2.39-13.73-3.71s-6.85-3.49-9.56-6.51c-2.71-3.02-4.07-7.1-4.07-12.25,0-4.47,1.25-8.54,3.76-12.2,2.51-3.66,6.25-6.54,11.24-8.64,4.98-2.1,11.03-3.15,18.15-3.15,4.88,0,9.68.53,14.39,1.58,4.71,1.05,8.86,2.59,12.46,4.63l-7.22,17.39c-6.98-3.52-13.59-5.29-19.83-5.29s-9.25,1.49-9.25,4.47c0,1.42.92,2.49,2.75,3.2,1.83.71,4.85,1.47,9.05,2.29,5.42,1.02,10,2.19,13.73,3.51,3.73,1.32,6.97,3.48,9.71,6.46,2.75,2.98,4.12,7.05,4.12,12.2,0,4.47-1.26,8.53-3.76,12.15-2.51,3.63-6.25,6.51-11.24,8.64-4.98,2.14-11.03,3.2-18.15,3.2-5.9,0-11.64-.66-17.24-1.98Z"/>
        <path class="cls-1" d="m335.98,160.18h-20.85v-18.61h65.7v18.61h-20.85v52.58h-24v-52.58Z"/>
        <path class="cls-1" d="m402.69,209.6c-6.1-3.19-10.88-7.61-14.34-13.27-3.46-5.66-5.19-12.05-5.19-19.17s1.73-13.51,5.19-19.17c3.46-5.66,8.24-10.08,14.34-13.27,6.1-3.19,12.98-4.78,20.64-4.78s14.54,1.59,20.64,4.78c6.1,3.19,10.88,7.61,14.34,13.27,3.46,5.66,5.19,12.05,5.19,19.17s-1.73,13.51-5.19,19.17c-3.46,5.66-8.24,10.09-14.34,13.27-6.1,3.19-12.98,4.78-20.64,4.78s-14.54-1.59-20.64-4.78Zm28.73-16.83c2.41-1.46,4.32-3.52,5.75-6.2,1.42-2.68,2.14-5.81,2.14-9.41s-.71-6.73-2.14-9.41c-1.42-2.68-3.34-4.74-5.75-6.2-2.41-1.46-5.1-2.19-8.08-2.19s-5.68.73-8.08,2.19c-2.41,1.46-4.32,3.53-5.75,6.2-1.42,2.68-2.14,5.81-2.14,9.41s.71,6.73,2.14,9.41c1.42,2.68,3.34,4.75,5.75,6.2,2.41,1.46,5.1,2.19,8.08,2.19s5.68-.73,8.08-2.19Zm-5.34-73.27h21.86l-20.03,16.27h-15.25l13.42-16.27Z"/>
        <path class="cls-1" d="m502.76,194.86h-6.51v17.9h-24v-71.19h34.27c6.58,0,12.3,1.09,17.19,3.25,4.88,2.17,8.64,5.29,11.29,9.36,2.64,4.07,3.97,8.81,3.97,14.24,0,5.08-1.15,9.53-3.46,13.32-2.31,3.8-5.63,6.81-9.97,9.05l14.95,21.97h-25.63l-12.1-17.9Zm9.56-32.59c-1.63-1.46-4.07-2.19-7.32-2.19h-8.75v16.68h8.75c3.25,0,5.69-.73,7.32-2.19,1.63-1.46,2.44-3.51,2.44-6.15s-.81-4.69-2.44-6.15Z"/>
        <path class="cls-1" d="m548.01,141.57h24v71.19h-24v-71.19Z"/>
        <path class="cls-1" d="m600.08,209.65c-6.03-3.15-10.76-7.56-14.19-13.22-3.42-5.66-5.14-12.08-5.14-19.27s1.71-13.61,5.14-19.27c3.42-5.66,8.15-10.07,14.19-13.22,6.03-3.15,12.81-4.73,20.34-4.73,6.92,0,13.08,1.22,18.51,3.66,5.42,2.44,9.9,5.97,13.42,10.58l-15.15,13.53c-4.41-5.56-9.59-8.34-15.56-8.34-5.02,0-9.05,1.61-12.1,4.83-3.05,3.22-4.58,7.54-4.58,12.97s1.53,9.75,4.58,12.97c3.05,3.22,7.08,4.83,12.1,4.83,5.97,0,11.15-2.78,15.56-8.34l15.15,13.53c-3.53,4.61-8,8.14-13.42,10.58-5.42,2.44-11.59,3.66-18.51,3.66-7.53,0-14.31-1.58-20.34-4.73Z"/>
        <path class="cls-1" d="m674.42,209.6c-6.1-3.19-10.88-7.61-14.34-13.27-3.46-5.66-5.19-12.05-5.19-19.17s1.73-13.51,5.19-19.17c3.46-5.66,8.24-10.08,14.34-13.27,6.1-3.19,12.98-4.78,20.64-4.78s14.54,1.59,20.64,4.78c6.1,3.19,10.88,7.61,14.34,13.27,3.46,5.66,5.19,12.05,5.19,19.17s-1.73,13.51-5.19,19.17c-3.46,5.66-8.24,10.09-14.34,13.27-6.1,3.19-12.98,4.78-20.64,4.78s-14.54-1.59-20.64-4.78Zm28.73-16.83c2.41-1.46,4.32-3.52,5.75-6.2,1.42-2.68,2.14-5.81,2.14-9.41s-.71-6.73-2.14-9.41c-1.42-2.68-3.34-4.74-5.75-6.2-2.41-1.46-5.1-2.19-8.08-2.19s-5.68.73-8.08,2.19c-2.41,1.46-4.32,3.53-5.75,6.2-1.42,2.68-2.14,5.81-2.14,9.41s.71,6.73,2.14,9.41c1.42,2.68,3.34,4.75,5.75,6.2,2.41,1.46,5.1,2.19,8.08,2.19s5.68-.73,8.08-2.19Z"/>
      </g>
    </g>
  </g>
</svg>