<?xml version="1.0" encoding="utf-8"?>
<!-- Generator: Adobe Illustrator 27.8.1, SVG Export Plug-In . SVG Version: 6.00 Build 0)  -->
<svg version="1.1" id="Capa_1" xmlns="http://www.w3.org/2000/svg" xmlns:xlink="http://www.w3.org/1999/xlink" x="0px" y="0px"
	 viewBox="0 0 36 36" style="enable-background:new 0 0 36 36;" xml:space="preserve">
<style type="text/css">
	.st0{clip-path:url(#SVGID_00000055678708915616536410000011042902443013844659_);}
	.st1{fill:#6314A7;}
	.st2{fill:#9341BF;}
	.st3{fill:#E7D0F1;}
	.st4{fill:#CEA2DC;}
</style>
<g>
	<g>
		<defs>
			<circle id="SVGID_1_" cx="18" cy="17.3" r="10.3"/>
		</defs>
		<clipPath id="SVGID_00000096059462388230320100000002051716214924513445_">
			<use xlink:href="#SVGID_1_"  style="overflow:visible;"/>
		</clipPath>
		<g style="clip-path:url(#SVGID_00000096059462388230320100000002051716214924513445_);">
			<polygon class="st1" points="18,17.3 14.5,23.4 21.5,23.4 			"/>
			<polygon class="st2" points="14.5,23.4 18,17.3 10.9,17.3 			"/>
			<polygon class="st2" points="21.5,23.4 25.1,17.3 18,17.3 			"/>
			<polygon class="st3" points="18,17.3 21.5,11.1 14.5,11.1 			"/>
			<polygon class="st4" points="21.5,11.1 18,17.3 25.1,17.3 			"/>
			<polygon class="st4" points="14.5,11.1 10.9,17.3 18,17.3 			"/>
		</g>
		<g style="clip-path:url(#SVGID_00000096059462388230320100000002051716214924513445_);">
			<polygon class="st1" points="18,5 14.5,11.1 21.5,11.1 			"/>
			<polygon class="st2" points="14.5,11.1 18,5 10.9,5 			"/>
			<polygon class="st2" points="21.5,11.1 25.1,5 18,5 			"/>
			<polygon class="st3" points="18,5 21.5,-1.2 14.5,-1.2 			"/>
			<polygon class="st4" points="21.5,-1.2 18,5 25.1,5 			"/>
			<polygon class="st4" points="14.5,-1.2 10.9,5 18,5 			"/>
		</g>
		<g style="clip-path:url(#SVGID_00000096059462388230320100000002051716214924513445_);">
			<polygon class="st1" points="18,29.6 14.5,35.7 21.5,35.7 			"/>
			<polygon class="st2" points="14.5,35.7 18,29.6 10.9,29.6 			"/>
			<polygon class="st2" points="21.5,35.7 25.1,29.6 18,29.6 			"/>
			<polygon class="st3" points="18,29.6 21.5,23.4 14.5,23.4 			"/>
			<polygon class="st4" points="21.5,23.4 18,29.6 25.1,29.6 			"/>
			<polygon class="st4" points="14.5,23.4 10.9,29.6 18,29.6 			"/>
		</g>
		<g style="clip-path:url(#SVGID_00000096059462388230320100000002051716214924513445_);">
			<polygon class="st1" points="28.6,11.1 25.1,17.3 32.2,17.3 			"/>
			<polygon class="st2" points="25.1,17.3 28.6,11.1 21.5,11.1 			"/>
			<polygon class="st2" points="32.2,17.3 35.7,11.1 28.6,11.1 			"/>
			<polygon class="st3" points="28.6,11.1 32.2,5 25.1,5 			"/>
			<polygon class="st4" points="32.2,5 28.6,11.1 35.7,11.1 			"/>
			<polygon class="st4" points="25.1,5 21.5,11.1 28.6,11.1 			"/>
		</g>
		<g style="clip-path:url(#SVGID_00000096059462388230320100000002051716214924513445_);">
			<polygon class="st1" points="28.6,23.4 25.1,29.6 32.2,29.6 			"/>
			<polygon class="st2" points="25.1,29.6 28.6,23.4 21.5,23.4 			"/>
			<polygon class="st2" points="32.2,29.6 35.7,23.4 28.6,23.4 			"/>
			<polygon class="st3" points="28.6,23.4 32.2,17.3 25.1,17.3 			"/>
			<polygon class="st4" points="32.2,17.3 28.6,23.4 35.7,23.4 			"/>
			<polygon class="st4" points="25.1,17.3 21.5,23.4 28.6,23.4 			"/>
		</g>
		<g style="clip-path:url(#SVGID_00000096059462388230320100000002051716214924513445_);">
			<polygon class="st1" points="7.4,23.4 3.8,29.6 10.9,29.6 			"/>
			<polygon class="st2" points="3.8,29.6 7.4,23.4 0.3,23.4 			"/>
			<polygon class="st2" points="10.9,29.6 14.5,23.4 7.4,23.4 			"/>
			<polygon class="st3" points="7.4,23.4 10.9,17.3 3.8,17.3 			"/>
			<polygon class="st4" points="10.9,17.3 7.4,23.4 14.5,23.4 			"/>
			<polygon class="st4" points="3.8,17.3 0.3,23.4 7.4,23.4 			"/>
		</g>
		<g style="clip-path:url(#SVGID_00000096059462388230320100000002051716214924513445_);">
			<polygon class="st1" points="7.4,11.1 3.8,17.3 10.9,17.3 			"/>
			<polygon class="st2" points="3.8,17.3 7.4,11.1 0.3,11.1 			"/>
			<polygon class="st2" points="10.9,17.3 14.5,11.1 7.4,11.1 			"/>
			<polygon class="st3" points="7.4,11.1 10.9,5 3.8,5 			"/>
			<polygon class="st4" points="10.9,5 7.4,11.1 14.5,11.1 			"/>
			<polygon class="st4" points="3.8,5 0.3,11.1 7.4,11.1 			"/>
		</g>
	</g>
	<g>
		<path class="st1" d="M33.6,17.5l-0.2,0.7c-0.2,0.8-0.7,1.3-1.5,1.5l-0.4,0.1C31.3,21,30.9,22,30.3,23c0.4-0.3,1-0.4,1.5-0.3
			l0.7,0.1l-0.5,0.5c-0.5,0.6-1.2,0.8-2,0.7L29.7,24c-0.5,0.8-1.2,1.6-1.9,2.2c-0.2,0.2-0.4,0.4-0.7,0.6c0.6-0.4,1.3-0.4,1.9-0.1
			l0.6,0.3l-0.6,0.4c-0.6,0.4-1.4,0.5-2.1,0.2l-0.6-0.2c-1.1,0.8-2.3,1.4-3.6,1.9c-0.1,0-0.2,0-0.2-0.2l0,0c0-0.1,0.1-0.2,0.1-0.2
			c0.7-0.3,1.4-0.6,2-0.9l-0.1-0.5c-0.1-0.8,0.2-1.5,0.8-2L26,25l0.1,0.7c0.1,0.7-0.1,1.4-0.7,1.9c0.9-0.5,1.7-1.2,2.4-1.9l-0.2-0.5
			c-0.3-0.7-0.1-1.5,0.3-2.1l0.4-0.5l0.2,0.6c0.2,0.6,0.2,1.2-0.1,1.8c0.8-1,1.5-2.1,2-3.2l-0.4-0.4c-0.5-0.6-0.7-1.3-0.5-2.1
			l0.2-0.7l0.5,0.5c0.5,0.6,0.7,1.3,0.5,2c0.4-1.1,0.6-2.3,0.7-3.6L31,17.2c-0.7-0.3-1.1-1-1.2-1.7l-0.1-0.7l0.6,0.3
			c0.6,0.3,1,0.8,1.2,1.5c-0.1-1.2-0.3-2.4-0.7-3.6l-0.5,0c-0.8,0.1-1.5-0.3-1.9-0.9l-0.4-0.5l0.7,0c0.8-0.1,1.5,0.3,1.9,0.9
			l0.1,0.1c-0.5-1.3-1.3-2.5-2.3-3.5l0,0l-0.7-0.2c-0.8-0.2-1.3-0.7-1.6-1.4l-0.2-0.6L26.5,7c0.7,0.2,1.2,0.6,1.5,1.2
			c0.5,0.5,1,1.1,1.4,1.6c-0.1-0.4,0-0.8,0.1-1.3l0.3-0.6l0.4,0.6c0.5,0.6,0.5,1.4,0.2,2.1l-0.2,0.5c0.4,0.8,0.8,1.6,1.1,2.5
			c0.1-0.3,0.2-0.6,0.4-0.8l0.4-0.6l0.3,0.6c0.3,0.7,0.2,1.5-0.2,2.1l-0.4,0.5c0.1,0.6,0.1,1.1,0.1,1.7c0,0.5,0,1-0.1,1.5
			c0.3-0.4,0.7-0.7,1.2-0.8L33.6,17.5z"/>
		<path class="st1" d="M13.4,29L13.4,29c0,0.1-0.1,0.2-0.2,0.2c-1.3-0.4-2.5-1.1-3.6-1.9L9,27.6c-0.7,0.3-1.5,0.2-2.1-0.2L6.3,27
			l0.6-0.3c0.7-0.3,1.3-0.2,1.9,0.1c-0.2-0.2-0.5-0.4-0.7-0.6c-0.7-0.7-1.4-1.4-1.9-2.2L5.9,24c-0.8,0.1-1.5-0.1-2-0.7l-0.5-0.5
			l0.7-0.1c0.6-0.1,1.1,0,1.5,0.3c-0.6-1-1-2.1-1.2-3.2l-0.4-0.1c-0.8-0.2-1.3-0.8-1.5-1.5l-0.2-0.7l0.6,0.2
			c0.5,0.2,0.9,0.4,1.2,0.8c-0.1-0.5-0.1-1-0.1-1.5c0-0.6,0-1.1,0.1-1.7l-0.4-0.5c-0.5-0.6-0.5-1.4-0.2-2.1l0.3-0.6l0.4,0.6
			c0.2,0.3,0.3,0.5,0.4,0.8c0.3-0.9,0.6-1.7,1.1-2.5l-0.2-0.5C5.2,9.9,5.3,9.1,5.8,8.5l0.4-0.6l0.3,0.6C6.6,9,6.6,9.4,6.6,9.8
			C7,9.3,7.5,8.7,8,8.2C8.3,7.6,8.8,7.1,9.5,7l0.7-0.2L9.9,7.4C9.6,8.2,9.1,8.7,8.3,8.9L7.7,9.1l0,0c-1,1-1.7,2.2-2.3,3.5l0.1-0.1
			c0.5-0.6,1.1-1,1.9-0.9l0.7,0l-0.4,0.5c-0.5,0.6-1.1,1-1.9,0.9l-0.5,0c-0.4,1.1-0.7,2.3-0.7,3.6c0.1-0.7,0.5-1.2,1.2-1.5l0.6-0.3
			l-0.1,0.7c-0.1,0.8-0.5,1.4-1.2,1.7l-0.5,0.2c0,1.2,0.3,2.4,0.7,3.6c-0.2-0.7,0-1.4,0.5-2l0.5-0.5l0.2,0.7c0.2,0.8,0,1.5-0.5,2.1
			l-0.4,0.4C6,22.9,6.7,24,7.5,25c-0.3-0.5-0.3-1.2-0.1-1.8l0.2-0.6L8,23.1c0.5,0.6,0.6,1.4,0.3,2.1l-0.2,0.5
			c0.7,0.7,1.5,1.3,2.4,1.9c-0.5-0.5-0.8-1.2-0.7-1.9L10,25l0.5,0.4c0.6,0.5,0.9,1.2,0.8,2l-0.1,0.5c0.6,0.4,1.3,0.7,2,0.9
			C13.3,28.9,13.4,28.9,13.4,29z"/>
	</g>
</g>
</svg>
