<?xml version="1.0" encoding="UTF-8"?>
<svg id="Capa_2" data-name="Capa 2" xmlns="http://www.w3.org/2000/svg" xmlns:xlink="http://www.w3.org/1999/xlink" viewBox="0 0 208.02 151.53">
  <defs>
    <style>
      .cls-1, .cls-2 {
        fill: none;
      }

      .cls-3 {
        fill: #fff;
      }

      .cls-4 {
        fill: #c4c4c4;
      }

      .cls-5 {
        fill: #9b9b9b;
      }

      .cls-6 {
        fill: #898989;
      }

      .cls-2 {
        clip-path: url(#clippath);
      }
    </style>
    <clipPath id="clippath">
      <circle class="cls-1" cx="103.82" cy="69.52" r="68.69"/>
    </clipPath>
  </defs>
  <g id="Capa_1-2" data-name="Capa 1">
    <g>
      <g>
        <g class="cls-2">
          <g>
            <g>
              <polygon class="cls-3" points="103.82 69.52 80.14 110.54 127.51 110.54 103.82 69.52"/>
              <polygon class="cls-4" points="80.14 110.54 103.82 69.52 56.45 69.52 80.14 110.54"/>
              <polygon class="cls-4" points="127.51 110.54 151.19 69.52 103.82 69.52 127.51 110.54"/>
              <polygon class="cls-6" points="103.82 69.52 127.51 28.5 80.14 28.5 103.82 69.52"/>
              <polygon class="cls-5" points="127.51 28.5 103.82 69.52 151.19 69.52 127.51 28.5"/>
              <polygon class="cls-5" points="80.14 28.5 56.45 69.52 103.82 69.52 80.14 28.5"/>
            </g>
            <g>
              <polygon class="cls-3" points="174.88 110.54 151.19 151.57 198.56 151.57 174.88 110.54"/>
              <polygon class="cls-4" points="151.19 151.57 174.88 110.54 127.51 110.54 151.19 151.57"/>
              <polygon class="cls-4" points="198.56 151.57 222.25 110.54 174.88 110.54 198.56 151.57"/>
              <polygon class="cls-6" points="174.88 110.54 198.56 69.52 151.19 69.52 174.88 110.54"/>
              <polygon class="cls-5" points="198.56 69.52 174.88 110.54 222.25 110.54 198.56 69.52"/>
              <polygon class="cls-5" points="151.19 69.52 127.51 110.54 174.88 110.54 151.19 69.52"/>
            </g>
            <g>
              <polygon class="cls-3" points="32.77 110.54 9.08 151.57 56.45 151.57 32.77 110.54"/>
              <polygon class="cls-4" points="9.08 151.57 32.77 110.54 -14.6 110.54 9.08 151.57"/>
              <polygon class="cls-4" points="56.45 151.57 80.14 110.54 32.77 110.54 56.45 151.57"/>
              <polygon class="cls-6" points="32.77 110.54 56.45 69.52 9.08 69.52 32.77 110.54"/>
              <polygon class="cls-5" points="56.45 69.52 32.77 110.54 80.14 110.54 56.45 69.52"/>
              <polygon class="cls-5" points="9.08 69.52 -14.6 110.54 32.77 110.54 9.08 69.52"/>
            </g>
            <g>
              <polygon class="cls-3" points="32.77 28.5 9.08 69.52 56.45 69.52 32.77 28.5"/>
              <polygon class="cls-4" points="9.08 69.52 32.77 28.5 -14.6 28.5 9.08 69.52"/>
              <polygon class="cls-4" points="56.45 69.52 80.14 28.5 32.77 28.5 56.45 69.52"/>
              <polygon class="cls-6" points="32.77 28.5 56.45 -12.53 9.08 -12.53 32.77 28.5"/>
              <polygon class="cls-5" points="56.45 -12.53 32.77 28.5 80.14 28.5 56.45 -12.53"/>
              <polygon class="cls-5" points="9.08 -12.53 -14.6 28.5 32.77 28.5 9.08 -12.53"/>
            </g>
            <g>
              <polygon class="cls-3" points="103.82 -12.53 80.14 28.5 127.51 28.5 103.82 -12.53"/>
              <polygon class="cls-4" points="80.14 28.5 103.82 -12.53 56.45 -12.53 80.14 28.5"/>
              <polygon class="cls-4" points="127.51 28.5 151.19 -12.53 103.82 -12.53 127.51 28.5"/>
            </g>
            <g>
              <polygon class="cls-6" points="103.82 151.57 127.51 110.54 80.14 110.54 103.82 151.57"/>
              <polygon class="cls-5" points="127.51 110.54 103.82 151.57 151.19 151.57 127.51 110.54"/>
              <polygon class="cls-5" points="80.14 110.54 56.45 151.57 103.82 151.57 80.14 110.54"/>
            </g>
            <g>
              <polygon class="cls-3" points="174.88 28.5 151.19 69.52 198.56 69.52 174.88 28.5"/>
              <polygon class="cls-4" points="151.19 69.52 174.88 28.5 127.51 28.5 151.19 69.52"/>
              <polygon class="cls-4" points="198.56 69.52 222.25 28.5 174.88 28.5 198.56 69.52"/>
              <polygon class="cls-6" points="174.88 28.5 198.56 -12.53 151.19 -12.53 174.88 28.5"/>
              <polygon class="cls-5" points="198.56 -12.53 174.88 28.5 222.25 28.5 198.56 -12.53"/>
              <polygon class="cls-5" points="151.19 -12.53 127.51 28.5 174.88 28.5 151.19 -12.53"/>
            </g>
          </g>
        </g>
        <path class="cls-3" d="m104.2,139.14c-38.36,0-69.57-31.21-69.57-69.57S65.84,0,104.2,0s69.57,31.21,69.57,69.57-31.21,69.57-69.57,69.57Zm0-137.38c-37.39,0-67.81,30.42-67.81,67.81s30.42,67.81,67.81,67.81,67.81-30.42,67.81-67.81S141.59,1.76,104.2,1.76Z"/>
      </g>
      <g>
        <path class="cls-3" d="m208.02,73.78l-1.2,4.37c-1.39,5.08-4.84,8.62-9.87,10.16l-2.55.78c-1.71,7.42-4.46,14.55-8.19,21.26,2.98-1.9,6.47-2.57,10.23-1.92l4.46.77-3.04,3.35c-3.54,3.9-8.21,5.5-13.39,4.6l-2.21-.39c-3.65,5.36-7.96,10.39-12.9,14.99-1.47,1.37-2.98,2.68-4.53,3.94,4.06-2.37,8.56-2.63,13.01-.74l4.17,1.77-3.73,2.57c-4.33,2.99-9.25,3.49-14.09,1.42l-3.8-1.62c-7.28,5.23-15.28,9.38-23.77,12.35-.81.29-1.67-.32-1.67-1.18h0c0-.53.34-1,.84-1.18,4.76-1.67,9.33-3.71,13.66-6.08l-.45-3.54c-.67-5.22,1.15-9.82,5.21-13.17l3.49-2.89.57,4.49c.63,4.98-.99,9.38-4.65,12.68,5.81-3.58,11.16-7.77,15.92-12.47l-1.2-3.35c-1.78-4.95-1-9.83,2.23-13.99l2.78-3.57,1.53,4.26c1.48,4.12,1.18,8.18-.82,11.82,5.63-6.48,10.24-13.74,13.61-21.59l-2.63-2.85c-3.57-3.87-4.75-8.67-3.39-13.75l1.17-4.37,3.07,3.33c3.45,3.74,4.66,8.35,3.51,13.25,2.71-7.54,4.3-15.56,4.57-23.88l-3.34-1.65c-4.72-2.34-7.54-6.39-8.09-11.63l-.48-4.5,4.06,2.01c4.19,2.07,6.88,5.51,7.81,9.91-.35-8.32-2.01-16.34-4.8-23.87l-3.55.23c-5.25.34-9.72-1.76-12.82-6.02l-2.66-3.66,4.52-.29c5.25-.34,9.72,1.76,12.82,6.02l.5.69c-3.62-8.66-8.75-16.63-15.1-23.62l.02.06-4.4-1.1c-5.11-1.27-8.73-4.63-10.39-9.63l-1.42-4.3,4.39,1.1c4.63,1.15,8.03,4.02,9.86,8.26,3.5,3.41,6.67,7.05,9.48,10.87-.57-2.78-.27-5.67.94-8.54l1.76-4.18,2.59,3.72c3,4.32,3.52,9.23,1.48,14.08l-1.36,3.23c2.98,5.23,5.36,10.74,7.11,16.43.4-1.94,1.23-3.83,2.49-5.61l2.61-3.7,1.72,4.19c2,4.87,1.45,9.78-1.59,14.07l-2.46,3.48c.53,3.74.8,7.53.8,11.37,0,3.33-.21,6.63-.6,9.89,1.8-2.68,4.45-4.61,7.82-5.64l4.33-1.33Z"/>
        <path class="cls-3" d="m73.07,150.28h0c0,.86-.85,1.46-1.67,1.18-8.49-2.97-16.49-7.12-23.77-12.35l-3.8,1.62c-4.84,2.06-9.76,1.57-14.09-1.42l-3.73-2.57,4.17-1.77c4.44-1.89,8.95-1.62,13.01.74-1.55-1.26-3.06-2.57-4.53-3.94-4.94-4.59-9.26-9.62-12.9-14.99l-2.21.39c-5.19.9-9.86-.71-13.39-4.6l-3.04-3.35,4.46-.77c3.76-.65,7.25.02,10.23,1.92-3.73-6.71-6.48-13.84-8.19-21.26l-2.55-.78c-5.03-1.54-8.48-5.08-9.87-10.16l-1.2-4.37,4.33,1.33c3.37,1.03,6.02,2.96,7.82,5.64-.4-3.26-.6-6.56-.6-9.89,0-3.83.27-7.63.8-11.37l-2.46-3.48c-3.04-4.3-3.6-9.2-1.59-14.07l1.72-4.19,2.61,3.7c1.26,1.78,2.09,3.66,2.49,5.61,1.75-5.7,4.13-11.2,7.11-16.43l-1.36-3.23c-2.04-4.85-1.52-9.77,1.48-14.08l2.59-3.72,1.76,4.18c1.21,2.87,1.51,5.76.94,8.54,2.81-3.82,5.98-7.46,9.48-10.87,1.83-4.24,5.24-7.11,9.86-8.26l4.39-1.1-1.42,4.3c-1.66,5-5.28,8.35-10.39,9.63l-4.4,1.1.02-.06c-6.34,6.99-11.48,14.96-15.1,23.62l.5-.69c3.1-4.26,7.57-6.35,12.82-6.02l4.52.29-2.66,3.66c-3.1,4.26-7.57,6.36-12.82,6.02l-3.55-.23c-2.79,7.53-4.45,15.55-4.8,23.87.94-4.41,3.62-7.84,7.81-9.91l4.06-2.01-.48,4.5c-.55,5.24-3.37,9.29-8.09,11.63l-3.34,1.65c.27,8.32,1.86,16.34,4.57,23.88-1.15-4.9.06-9.51,3.51-13.25l3.07-3.33,1.17,4.37c1.36,5.09.18,9.88-3.39,13.75l-2.63,2.85c3.37,7.85,7.98,15.12,13.61,21.59-2-3.64-2.29-7.7-.82-11.82l1.53-4.26,2.78,3.57c3.23,4.16,4.01,9.03,2.23,13.99l-1.2,3.35c4.76,4.7,10.11,8.89,15.92,12.47-3.66-3.31-5.28-7.71-4.65-12.68l.57-4.49,3.49,2.89c4.05,3.35,5.87,7.95,5.21,13.17l-.45,3.54c4.34,2.37,8.9,4.41,13.66,6.08.5.18.84.65.84,1.18Z"/>
      </g>
    </g>
  </g>
</svg>